# xmcd
#
# Track frame offsets:
#	150
#	16355
#	31866
#	48750
#	67742
#	83501
#	102546
#	122478
#	140015
#	168833
#	212869
#	247103
#
# Disc length: 3572 seconds
#
# Revision: 0
# Processed by: cddbd v1.5.2PL0 Copyright (c) Steve Scherf et al.
# Submitted via: EasyCDDAExtractor 11.1.0.1
#
DISCID=980df20c
DTITLE=Vienna Vocal Consort\\Vijay Upadhyaya - O Magnum Mysterium: Sacred Musi
DTITLE=c of Palestrina
DYEAR=2002
DGENRE=Country
TTITLE0=O magnum mysterium (prima pars) 
TTITLE1=Quem vidistis pastores (secunda pars)
TTITLE2=Ave Maria
TTITLE3=Vidi turbam magnam (prima pars)
TTITLE4=Et omnes Angeli (secunda pars) 
TTITLE5=Loquebantur variis linguis
TTITLE6=Tu es petrus
TTITLE7=Kyrie
TTITLE8=Gloria
TTITLE9=Credo
TTITLE10=Sanctus, Benedictus
TTITLE11=Agnus Dei
EXTD=
EXTT0=O Magnum Mysterium: Sacred Music of Palestrina\nGiovanni Pierluigi da Pa
EXTT0=lestrina (Artist), Vienna Vocal Consort (Artist), Vijay Upadhyaya (Artis
EXTT0=t) \n
EXTT1=O Magnum Mysterium: Sacred Music of Palestrina\nGiovanni Pierluigi da Pa
EXTT1=lestrina (Artist), Vienna Vocal Consort (Artist), Vijay Upadhyaya (Artis
EXTT1=t) \n
EXTT2=O Magnum Mysterium: Sacred Music of Palestrina\nGiovanni Pierluigi da Pa
EXTT2=lestrina (Artist), Vienna Vocal Consort (Artist), Vijay Upadhyaya (Artis
EXTT2=t) \n
EXTT3=
EXTT4=
EXTT5=
EXTT6=
EXTT7=
EXTT8=
EXTT9=
EXTT10=
EXTT11=
PLAYORDER=
